<?xml version="1.0" encoding="UTF-8"?>
<!-- Do not edit this file with editors other than draw.io -->
<!DOCTYPE svg PUBLIC "-//W3C//DTD SVG 1.1//EN" "http://www.w3.org/Graphics/SVG/1.1/DTD/svg11.dtd">
<svg xmlns="http://www.w3.org/2000/svg" style="background: transparent; background-color: transparent; color-scheme: light dark;" xmlns:xlink="http://www.w3.org/1999/xlink" version="1.1" width="3000px" height="3000px" viewBox="0 0 3000 3000" content="&lt;mxfile host=&quot;app.diagrams.net&quot; scale=&quot;1&quot; border=&quot;0&quot;&gt;&#xA;  &lt;diagram name=&quot;Page-1&quot; id=&quot;9CL77TWer8Z-6-LNds2S&quot;&gt;&#xA;    &lt;mxGraphModel dx=&quot;25980&quot; dy=&quot;21700&quot; grid=&quot;1&quot; gridSize=&quot;10&quot; guides=&quot;1&quot; tooltips=&quot;1&quot; connect=&quot;1&quot; arrows=&quot;1&quot; fold=&quot;1&quot; page=&quot;1&quot; pageScale=&quot;1&quot; pageWidth=&quot;3000&quot; pageHeight=&quot;3000&quot; math=&quot;0&quot; shadow=&quot;0&quot;&gt;&#xA;      &lt;root&gt;&#xA;        &lt;mxCell id=&quot;xg6y9DHAIHjgGLSMy34H-0&quot; /&gt;&#xA;        &lt;mxCell id=&quot;xg6y9DHAIHjgGLSMy34H-1&quot; parent=&quot;xg6y9DHAIHjgGLSMy34H-0&quot; /&gt;&#xA;        &lt;mxCell id=&quot;79PeiXm6fneaVVfYROTj-0&quot; parent=&quot;xg6y9DHAIHjgGLSMy34H-1&quot; style=&quot;shape=image;verticalLabelPosition=bottom;labelBackgroundColor=default;verticalAlign=top;aspect=fixed;imageAspect=0;editableCssRules=.*;image=data:image/svg+xml,PHN2ZyB4bWxucz0iaHR0cDovL3d3dy53My5vcmcvMjAwMC9zdmciIHhtbDpzcGFjZT0icHJlc2VydmUiIHZpZXdCb3g9IjAgMCAxMjggMTI4IiB3aWR0aD0iMTI4IiBoZWlnaHQ9IjEyOCI+PHBhdGggZD0ibTIzLjgyIDc3LjEzLTcuNy0xMi4wNyAyLjExLTguMyAxNy44MS0xMS43NyAyNC42LTMuMDIgMjcuOTIgMy42MkwxMDIgNTAuODdzMTAuMTEgOC43NSAxMC4yNiAxMC41Ni0yLjcyIDExLjMyLTIuODcgMTEuNzctMi4xMSAxMC4yNi04IDEyLjM3LTQzLjc2IDcuNTUtNDQuMzcgNy4yNC0zMy4yLTE1LjY4LTMzLjItMTUuNjgiIHN0eWxlPSJmaWxsOiMyZjJmMmYiLz48cGF0aCBkPSJNMTkuNzUgNzMuMzZzLjIzLTIuNTYgMS4xLTUuMTFjMS4xNi0zLjQyIDExLjg4LTE4LjI4IDQxLjkxLTE4LjI4czQ2LjYzIDE0Ljc5IDQ0Ljk3IDIyLjE4Uzg1LjQgOTguMTEgODUuNCA5OC4xMXMtMzYuMjItNS41OC0zNi44Mi01LjczYy0uNjEtLjE2LTI4LjgzLTE5LjAyLTI4LjgzLTE5LjAyIiBzdHlsZT0iZmlsbDojZjdiMDNhIi8+PHBhdGggZD0iTTMzLjcyIDY0LjU2Yy0uODguMTktMS42NS43Ni0xLjU3IDEuNzguMDcgMS4wMiAxLjAxIDEuNSAxLjg1IDEuMzYgMS4zMS0uMjIgMS43OC0xLjE1IDEuNjEtMi4wNi0uMTctLjgzLTEuMDktMS4yNi0xLjg5LTEuMDhNMzIuODggNjkuMzFjLjg4IDEuMzktLjQ1IDMuMzItMy4xMSA0LjE2cy00LjUxLjQyLTQuODItMS40IDIuMDYtMi45NyAzLjI4LTMuMzkgMy43NC0uOCA0LjY1LjYzTTQ3LjEzIDU5LjI1Yy4wNiAxLjM1IDEuOTkgMi4xIDQuNzIgMS43NXM0LjE5LTEuODUgNC4wNS0zLjIxLTIuMDYtMS44OS00LjI2LTEuNzUtNC41OCAxLjUtNC41MSAzLjIxTTU2LjUgNTUuNzJjMCAxLjIxIDEuNDMgMS42MSAzLjI4IDEuNSAyLjItLjEyIDIuOC0uOTggMi45LTEuNzhzLTEuMjItMi4wNi0zLjA4LTEuOTJjLTEuODQuMTQtMy4xLjg3LTMuMSAyLjJNNzQuODQgNjcuMDRjLS4xNCAxLjUzLjkxIDMuMjEgNS4wMyAyLjg3czQuOTMtMi40MSA0LjkzLTMuMTQtLjY4LTIuOTUtNC42MS0zLjAxYy0yLjM3LS4wNC01LjE0Ljk3LTUuMzUgMy4yOE05NC4wMyA2Ni4xN2MtLjA4Ljc4LjE3IDIuOCAzLjg4IDIuNjkgMy43LS4xIDMuMjUtMS4zNiAzLjI1LTEuOTJzLTEuMjYtMi42Mi0zLjg4LTIuOWMtMi4wOS0uMjMtMy4xMS44My0zLjI1IDIuMTNNOTguNzggNzEuNThjLS4wNy45NCAxLjAxIDEuNjggMy4zMiAxLjU0IDEuOTYtLjEyIDIuODEtMS4xNSAyLjc2LTEuOTItLjA3LTEuMTItMS4xNS0xLjY4LTIuODMtMS42MS0xLjQ3LjA2LTMuMTQuNjctMy4yNSAxLjk5TTU2LjM2IDgwLjk1Yy4wNC44IDEuNzUgMS43NSA0LjUxIDEuNzVzMy4yOC0xLjE1IDMuMjgtMS45OS0uODctMS43OC0zLjQyLTEuODljLTIuMjgtLjEtNC40NC43Ny00LjM3IDIuMTMiIHN0eWxlPSJmaWxsOiNmZmUzNmEiLz48cGF0aCBkPSJNMjcuNzEgNzguMTljLjEtLjI0LjIyLTEuMjkuNzMtMi4xNy40NS0uNzcgMS4yNS0xLjQgMi4xNy0xLjQgMS42MSAwIDUuMjQuNjMgNi4wOCAxLjc4LjYxLjg0LjU2IDMuOTUtMS44OSA0Ljc1LTIuNDUuODEtNy4wOS0yLjk2LTcuMDktMi45Nk0zNS4xOCA2Mi4xMWMuMDUuNjQgMS4wOCAxLjkyIDIuNDUgMS44MiAxLjM2LS4xIDUuMzEtMS45MiA1LjctMi43My4zOC0uOC0xLjIyLTIuNjItMi4yNy0yLjYycy01Ljk4IDIuMjEtNS44OCAzLjUzTTc1LjQ0IDcyLjg4Yy0uNDEuODMtLjg0IDMuMjguOTQgMy45NSAxLjc4LjY2IDguNjcuOTggOC42Ny0xLjAxcy0xLjk2LTMuNDItMi42OS0zLjUzYy0uNzQtLjExLTYuMjktLjY3LTYuOTIuNTlNODMuNTEgNjkuNjNjLTEuMTMgMS43NS45MyAzLjgzIDIuNDUgNC41NCAzLjI4IDEuNTQgNC45MyAxLjI4IDYuMDguNDIgMS45Ni0xLjQ3IDEuMjktMi45NC0yLjktNC44OS0yLjk5LTEuNC00Ljg2LTEuMjYtNS42My0uMDciIHN0eWxlPSJmaWxsOiNkNjRjMTIiLz48cGF0aCBkPSJNNjUuMDcgNTkuMmMtLjAzIDEuODUgNC4xMSAzLjcyIDcuMDkgMy44MXMzLjc2LTEuMzEgMy45OC0xLjk3LS44My0yLjkzLTIuMDEtMy45LTQuMi0xLjk3LTUuNTYtMS43OWMtMS4zNi4xNy0zLjQ2IDEuNDktMy41IDMuODUiIHN0eWxlPSJmaWxsOiM3ZjU5NGIiLz48cGF0aCBkPSJNNDAuNzMgNjguOTJjLjIgMS4yNSAyLjExIDIuMSA1LjQ3IDIuMzIgNC4wNy4yNiA2LjY1LTEuNTggNi43NC0yLjM2LjA5LS43OS0yLjI4LTIuOC02LjQzLTIuOC01LjA0LS4wMS01Ljk1IDEuNzQtNS43OCAyLjg0IiBzdHlsZT0iZmlsbDojZmU4ZDAwIi8+PHBhdGggZD0iTTM5LjI5IDc2LjM2Yy0uMTMgMi4yMyAxLjQ0IDMuMTUgMy42MyAzLjA2czYuMy0yLjE0IDcuMTMtNC41MWMuNTItMS40Ny0xLjkzLTQuMDctNS41Mi0zLjk0LTIuMDcuMDgtNS4xMyAzLjQ0LTUuMjQgNS4zOSIgc3R5bGU9ImZpbGw6IzdmNTk0YiIvPjxwYXRoIGQ9Ik03Ny44MSA2My4xOGMuODguNDggNC4xNi0uNDQgNi43NC0uOTZzNS4yMS0uNzkgNS42LTEuNjItLjMxLTQuMzMtNC4xNi00LjY0LTYuMDQgMS4xNC02Ljk2IDIuMTRjLS45MiAxLjAxLTEuNTMgMi4yMy0xLjU4IDIuNTgtLjA0LjM2LS4yNSAyLjE3LjM2IDIuNU05My40OCA2OS43NWMxLjI1LS4yMi40NC0zLjk4LS41Ny01LjEycy0zLjg1LTEuNjYtNS42NS0xLjQ0Yy0xLjc5LjIyLTMuMDIuNy0zLjExIDEuNzFzMy4xMSAyLjcxIDQuNzcgMy40NmMxLjY3LjczIDMuODEgMS41MiA0LjU2IDEuMzkiIHN0eWxlPSJmaWxsOiNmZThkMDAiLz48cGF0aCBkPSJNNTAuNSA3Mi41OGMxLjAzLjM2IDMuNDMtLjM0IDMuNDYtMS44NnMtMS4zNC0yLjk0LTIuNjktMi42M2MtLjY4LjE1LTIuMSAxLjkyLTIuMDcgMi42LjAzLjY5Ljc3IDEuNzEgMS4zIDEuODlNNTUuNTQgNjMuNDZjLjA5IDEuMjEgMi43OCAyLjQ3IDMuNzEgMS42Ny44OC0uNzYuMzctMy45OS0uNzctMy45OS0xLjQyIDAtMi45OCAxLjgyLTIuOTQgMi4zMk01OC4wOCA2OS4yN2MuMDIuNDMuNjUgMi40MSAyLjIgMi4zOHMzLjY1LTEuNjEgMy42NS0yLjQxLTIuNDQtMy4zNy0zLjU5LTMuMzRjLS43OC4wMi0yLjI5IDIuNTQtMi4yNiAzLjM3IiBzdHlsZT0iZmlsbDojOTJhNTFlIi8+PHBhdGggZD0iTTYzLjE4IDYzLjU1Yy0uMTggMS4wNy42MiAxLjE4IDEuMzMgMS4zczEuNjEuMzQgMi41NCAxLjU1IDEuODQgMy43MiAxLjk1IDMuOTljLjM0Ljg3IDEuODkgMS4zMyAzIC4yNXMtMS4wOC01Ljg0LTMuMDMtNy4zNmMtMS45Ni0xLjUyLTUuNDUtMS43MS01Ljc5LjI3IiBzdHlsZT0iZmlsbDojZmJlMGJjIi8+PHBhdGggZD0iTTYyLjY4IDY2LjA5Yy4xNS45OSAyLjQxIDIuODEgMy45OSAyLjAxcy0uMTItMy43NS0uODEtNC4wN2MtLjQzLS4yMS0zLjQuNjItMy4xOCAyLjA2TTcxLjg3IDYzLjY1Yy0uNzEtLjAzLTEuMy4yMi0xLjI3IDEuNDIuMDMgMS4yMS40OSAyLjU3IDIuMDcgMi42NnMxLjczLTEuOTggMS43My0yLjIzLS45Ni0xLjc5LTIuNTMtMS44NU03Mi4zMyA3MC4yYy0uNTktLjE0LTMuNDMgMS4wOC0zLjQ5IDIuMjMtLjA2IDEuMTQuOTkgMi4wMSAyLjc4IDIuMjNzMyAuMjIgMy4yNS0uNjVjLjI0LS44Ny0uNzgtMy4zOC0yLjU0LTMuODEiIHN0eWxlPSJmaWxsOiM5MmE1MWUiLz48cGF0aCBkPSJNODUuMjIgODAuNjFjLjExLjY3IDIuNDcgMS43MiAzLjIzIDEuNTEuNzUtLjIxIDIuNi00LjA3IDUuMzctNC44NiAyLjc3LS44IDMuNjktLjQ2IDQuMDctLjg4cy0uMTctMi4zNS0xLjA5LTIuNjgtMy40LS44LTYuNSAxLjAxYy0zLjE4IDEuODQtNS4yMSA1LjE1LTUuMDggNS45TTU1LjY3IDcxLjA5Yy0xLjM2LjA4LTMuMTkgMi4xLTMuOTggMy45NC0xLjIxIDIuNzktMS41OSA1LjExLTEuMjYgNS43LjM0LjU5IDIuNzUgMS40MSAzLjczLjc1LjI1LS4xNy41LTMuMjcgMS43Mi01LjYyLjgzLTEuNTkgMi4yMi0yLjIyIDIuNDctMi40N3MtLjQ2LTIuNDItMi42OC0yLjNNNDMuOTcgNTYuOTNjLS4zNy4zNS0xLjM4IDEuOTctMS4wNSA0LjgyLjI2IDIuMTcuNTYgMy40OSAxLjI2IDMuODEuNTQuMjUgNC40LjYzIDQuNzQtLjM4cy0yLjA1LTMuODEtMi4zMS00LjMyLS4zOC0zLjQ0LS40Mi0zLjgxYy0uMDQtLjM4LTEuNjMtLjY3LTIuMjItLjEyIiBzdHlsZT0iZmlsbDojZmJlMGFmIi8+PHBhdGggZD0iTTEyMi42NyA1Ni42MWMtMS44MS0zLjYyLTMuNzctNC45OC01LjQzLTQuOThzLTcuMzkgMi43Mi03LjM5IDIuNzJTOTcgNDAuNTUgNjQuNDEgNDAuMDhjLTMxLjU0LS40Ni00NC45NSAxMi41OS00NC45NSAxMi41OXMtNC41NC0zLjQ2LTguOTItMy4wMWMtNC4zNy40Ni04LjE0IDExLjkzLTYuMTggMTUuMjVzNC44MyAzLjE3IDcuMDkgNC4zOCA0LjM4IDIuNTcgNC44MyAzLjMyIDEuODEgMTcuNTEgNi4wNCAyNS4wNWM0LjIzIDcuNTUgMTIuMjIgMTcuNjYgNDEuNSAxOC4yNlMxMDEgMTA0LjcgMTA0LjU2IDk3Ljk2YzQuMjMtOCA2LjE5LTIyLjc5IDYuMTktMjIuNzlzMy4wMi0yLjcyIDYuMzQtNC4wN2MzLjY3LTEuNSA1LjI4LTEuODEgNi4zNC0zLjMyIDEuMDUtMS41MiAxLjA1LTcuNTUtLjc2LTExLjE3bS01Ny44IDI4LjIyYy0zMS41NC0uMzEtNDYuNzktMTAuMjctNDYuMzMtMjEuNTguMy03LjM5IDE1LjA5LTE5LjYyIDQ0LjA3LTE5LjMyQzkxLjkgNDQuMjQgMTEwLjE1IDU0LjggMTEwIDY0LjZjLS4xNiA5LjgxLTE0LjE5IDIwLjUzLTQ1LjEzIDIwLjIzIiBzdHlsZT0iZmlsbDojNmE2ZTcwIi8+PHBhdGggZD0iTTYzLjcxIDU3LjI1YzMuMTktLjM0IDEuNzQtNS43MSA0LjM2LTEwLjg5IDUuOTktMTEuODcgMTcuNzYtMTMuMDcgMTcuNDMtMjMuMi0uMzYtMTEuMDgtMTcuNTQtMTYuNDYtMjIuNzctMTIuMjEtMS42OCAxLjM3IDcuOTUgMi45NCA2LjQzIDkuMjYtMS41MyA2LjMyLTEzLjE4IDYuNzUtMTYuMDEgMTYuODgtMy4zNyAxMi4wMiA4LjQ5IDIwLjM3IDEwLjU2IDIwLjE2IiBzdHlsZT0ib3BhY2l0eTouNjtmaWxsOiNlYWVhZWEiLz48L3N2Zz4=;&quot; value=&quot;&quot; vertex=&quot;1&quot;&gt;&#xA;          &lt;mxGeometry height=&quot;3000&quot; width=&quot;3000&quot; y=&quot;-3000&quot; as=&quot;geometry&quot; /&gt;&#xA;        &lt;/mxCell&gt;&#xA;      &lt;/root&gt;&#xA;    &lt;/mxGraphModel&gt;&#xA;  &lt;/diagram&gt;&#xA;&lt;/mxfile&gt;&#xA;"><defs/><g><g data-cell-id="xg6y9DHAIHjgGLSMy34H-0"><g data-cell-id="xg6y9DHAIHjgGLSMy34H-1"><g data-cell-id="79PeiXm6fneaVVfYROTj-0"><g><g><svg xmlns="http://www.w3.org/2000/svg" xml:space="preserve" viewBox="0 0 128 128" width="3000" height="3000" x="0" y="0" style="font-family: initial;"><path d="m23.82 77.13-7.7-12.07 2.11-8.3 17.81-11.77 24.6-3.02 27.92 3.62L102 50.87s10.11 8.75 10.26 10.56-2.72 11.32-2.87 11.77-2.11 10.26-8 12.37-43.76 7.55-44.37 7.24-33.2-15.68-33.2-15.68" style="fill:#2f2f2f"/><path d="M19.75 73.36s.23-2.56 1.1-5.11c1.16-3.42 11.88-18.28 41.91-18.28s46.63 14.79 44.97 22.18S85.4 98.11 85.4 98.11s-36.22-5.58-36.82-5.73c-.61-.16-28.83-19.02-28.83-19.02" style="fill:#f7b03a"/><path d="M33.72 64.56c-.88.19-1.65.76-1.57 1.78.07 1.02 1.01 1.5 1.85 1.36 1.31-.22 1.78-1.15 1.61-2.06-.17-.83-1.09-1.26-1.89-1.08M32.88 69.31c.88 1.39-.45 3.32-3.11 4.16s-4.51.42-4.82-1.4 2.06-2.97 3.28-3.39 3.74-.8 4.65.63M47.13 59.25c.06 1.35 1.99 2.1 4.72 1.75s4.19-1.85 4.05-3.21-2.06-1.89-4.26-1.75-4.58 1.5-4.51 3.21M56.5 55.72c0 1.21 1.43 1.61 3.28 1.5 2.2-.12 2.8-.98 2.9-1.78s-1.22-2.06-3.08-1.92c-1.84.14-3.1.87-3.1 2.2M74.84 67.04c-.14 1.53.91 3.21 5.03 2.87s4.93-2.41 4.93-3.14-.68-2.95-4.61-3.01c-2.37-.04-5.14.97-5.35 3.28M94.03 66.17c-.08.78.17 2.8 3.88 2.69 3.7-.1 3.25-1.36 3.25-1.92s-1.26-2.62-3.88-2.9c-2.09-.23-3.11.83-3.25 2.13M98.78 71.58c-.07.94 1.01 1.68 3.32 1.54 1.96-.12 2.81-1.15 2.76-1.92-.07-1.12-1.15-1.68-2.83-1.61-1.47.06-3.14.67-3.25 1.99M56.36 80.95c.04.8 1.75 1.75 4.51 1.75s3.28-1.15 3.28-1.99-.87-1.78-3.42-1.89c-2.28-.1-4.44.77-4.37 2.13" style="fill:#ffe36a"/><path d="M27.71 78.19c.1-.24.22-1.29.73-2.17.45-.77 1.25-1.4 2.17-1.4 1.61 0 5.24.63 6.08 1.78.61.84.56 3.95-1.89 4.75-2.45.81-7.09-2.96-7.09-2.96M35.18 62.11c.05.64 1.08 1.92 2.45 1.82 1.36-.1 5.31-1.92 5.7-2.73.38-.8-1.22-2.62-2.27-2.62s-5.98 2.21-5.88 3.53M75.44 72.88c-.41.83-.84 3.28.94 3.95 1.78.66 8.67.98 8.67-1.01s-1.96-3.42-2.69-3.53c-.74-.11-6.29-.67-6.92.59M83.51 69.63c-1.13 1.75.93 3.83 2.45 4.54 3.28 1.54 4.93 1.28 6.08.42 1.96-1.47 1.29-2.94-2.9-4.89-2.99-1.4-4.86-1.26-5.63-.07" style="fill:#d64c12"/><path d="M65.07 59.2c-.03 1.85 4.11 3.72 7.09 3.81s3.76-1.31 3.98-1.97-.83-2.93-2.01-3.9-4.2-1.97-5.56-1.79c-1.36.17-3.46 1.49-3.5 3.85" style="fill:#7f594b"/><path d="M40.73 68.92c.2 1.25 2.11 2.1 5.47 2.32 4.07.26 6.65-1.58 6.74-2.36.09-.79-2.28-2.8-6.43-2.8-5.04-.01-5.95 1.74-5.78 2.84" style="fill:#fe8d00"/><path d="M39.29 76.36c-.13 2.23 1.44 3.15 3.63 3.06s6.3-2.14 7.13-4.51c.52-1.47-1.93-4.07-5.52-3.94-2.07.08-5.13 3.44-5.24 5.39" style="fill:#7f594b"/><path d="M77.81 63.18c.88.48 4.16-.44 6.74-.96s5.21-.79 5.6-1.62-.31-4.33-4.16-4.64-6.04 1.14-6.96 2.14c-.92 1.01-1.53 2.23-1.58 2.58-.04.36-.25 2.17.36 2.5M93.48 69.75c1.25-.22.44-3.98-.57-5.12s-3.85-1.66-5.65-1.44c-1.79.22-3.02.7-3.11 1.71s3.11 2.71 4.77 3.46c1.67.73 3.81 1.52 4.56 1.39" style="fill:#fe8d00"/><path d="M50.5 72.58c1.03.36 3.43-.34 3.46-1.86s-1.34-2.94-2.69-2.63c-.68.15-2.1 1.92-2.07 2.6.03.69.77 1.71 1.3 1.89M55.54 63.46c.09 1.21 2.78 2.47 3.71 1.67.88-.76.37-3.99-.77-3.99-1.42 0-2.98 1.82-2.94 2.32M58.08 69.27c.02.43.65 2.41 2.2 2.38s3.65-1.61 3.65-2.41-2.44-3.37-3.59-3.34c-.78.02-2.29 2.54-2.26 3.37" style="fill:#92a51e"/><path d="M63.18 63.55c-.18 1.07.62 1.18 1.33 1.3s1.61.34 2.54 1.55 1.84 3.72 1.95 3.99c.34.87 1.89 1.33 3 .25s-1.08-5.84-3.03-7.36c-1.96-1.52-5.45-1.71-5.79.27" style="fill:#fbe0bc"/><path d="M62.68 66.09c.15.99 2.41 2.81 3.99 2.01s-.12-3.75-.81-4.07c-.43-.21-3.4.62-3.18 2.06M71.87 63.65c-.71-.03-1.3.22-1.27 1.42.03 1.21.49 2.57 2.07 2.66s1.73-1.98 1.73-2.23-.96-1.79-2.53-1.85M72.33 70.2c-.59-.14-3.43 1.08-3.49 2.23-.06 1.14.99 2.01 2.78 2.23s3 .22 3.25-.65c.24-.87-.78-3.38-2.54-3.81" style="fill:#92a51e"/><path d="M85.22 80.61c.11.67 2.47 1.72 3.23 1.51.75-.21 2.6-4.07 5.37-4.86 2.77-.8 3.69-.46 4.07-.88s-.17-2.35-1.09-2.68-3.4-.8-6.5 1.01c-3.18 1.84-5.21 5.15-5.08 5.9M55.67 71.09c-1.36.08-3.19 2.1-3.98 3.94-1.21 2.79-1.59 5.11-1.26 5.7.34.59 2.75 1.41 3.73.75.25-.17.5-3.27 1.72-5.62.83-1.59 2.22-2.22 2.47-2.47s-.46-2.42-2.68-2.3M43.97 56.93c-.37.35-1.38 1.97-1.05 4.82.26 2.17.56 3.49 1.26 3.81.54.25 4.4.63 4.74-.38s-2.05-3.81-2.31-4.32-.38-3.44-.42-3.81c-.04-.38-1.63-.67-2.22-.12" style="fill:#fbe0af"/><path d="M122.67 56.61c-1.81-3.62-3.77-4.98-5.43-4.98s-7.39 2.72-7.39 2.72S97 40.55 64.41 40.08c-31.54-.46-44.95 12.59-44.95 12.59s-4.54-3.46-8.92-3.01c-4.37.46-8.14 11.93-6.18 15.25s4.83 3.17 7.09 4.38 4.38 2.57 4.83 3.32 1.81 17.51 6.04 25.05c4.23 7.55 12.22 17.66 41.5 18.26S101 104.7 104.56 97.96c4.23-8 6.19-22.79 6.19-22.79s3.02-2.72 6.34-4.07c3.67-1.5 5.28-1.81 6.34-3.32 1.05-1.52 1.05-7.55-.76-11.17m-57.8 28.22c-31.54-.31-46.79-10.27-46.33-21.58.3-7.39 15.09-19.62 44.07-19.32C91.9 44.24 110.15 54.8 110 64.6c-.16 9.81-14.19 20.53-45.13 20.23" style="fill:#6a6e70"/><path d="M63.71 57.25c3.19-.34 1.74-5.71 4.36-10.89 5.99-11.87 17.76-13.07 17.43-23.2-.36-11.08-17.54-16.46-22.77-12.21-1.68 1.37 7.95 2.94 6.43 9.26-1.53 6.32-13.18 6.75-16.01 16.88-3.37 12.02 8.49 20.37 10.56 20.16" style="opacity:.6;fill:#eaeaea"/></svg></g></g></g></g></g></g></svg>